<svg width="1618" height="279" viewBox="0 0 1618 279" fill="none" xmlns="http://www.w3.org/2000/svg">
<path d="M119.754 271.793V163.807C119.754 162.583 119.754 161.971 119.573 161.425C119.413 160.942 119.152 160.499 118.806 160.126C118.416 159.704 117.88 159.408 116.809 158.817L93.6209 146.022C90.8414 144.488 89.4511 143.721 88.3141 143.857C87.322 143.975 86.425 144.505 85.8428 145.317C85.1751 146.247 85.1751 147.836 85.1751 151.012V213.576C85.1751 216.767 85.1751 218.363 84.5044 219.295C83.9196 220.109 83.019 220.638 82.0244 220.753C80.8838 220.885 79.491 220.107 76.7054 218.553L37.4995 196.671C36.4363 196.078 35.9047 195.781 35.5177 195.36C35.1752 194.987 34.9161 194.546 34.7577 194.065C34.5785 193.522 34.5785 192.913 34.5785 191.694V92.203C34.5785 91.019 34.5785 90.4268 34.7491 89.8956C34.9001 89.4255 35.1471 88.992 35.4745 88.6226C35.8445 88.2048 36.3536 87.9031 37.3718 87.2997L77.1432 63.7343C78.2146 63.0993 78.7501 62.7818 79.3206 62.6602C79.8251 62.5529 80.3473 62.5564 80.8502 62.6709C81.4192 62.8001 81.9501 63.1248 83.0129 63.7735L120.367 86.5924C123.019 88.213 124.345 89.023 124.793 90.063C125.184 90.9712 125.18 92.0015 124.782 92.9067C124.326 93.9436 122.994 94.7435 120.329 96.3432L93.3951 112.513C90.6873 114.139 89.3337 114.951 88.8791 115.999C88.4819 116.914 88.4865 117.953 88.8913 118.864C89.355 119.908 90.7163 120.709 93.4378 122.311L116.873 136.105C117.922 136.722 118.446 137.03 119.005 137.151C119.499 137.259 120.01 137.259 120.504 137.153C121.063 137.033 121.588 136.726 122.637 136.111L190.423 96.42C193.185 94.802 194.566 93.9935 195.032 92.9408C195.437 92.0229 195.437 90.9763 195.031 90.0584C194.565 89.0062 193.184 88.1982 190.42 86.5817L89.9139 27.7931C86.337 25.7007 84.5481 24.6545 82.6437 24.2435C80.9591 23.8799 79.2164 23.8776 77.5302 24.2366C75.6248 24.6424 73.8333 25.6837 70.2504 27.7664L9.71779 62.9538C6.17705 65.0119 4.4066 66.0412 3.11931 67.4771C1.98027 68.7476 1.12009 70.243 0.594268 71.8666C0 73.7018 0 75.7503 0 79.8477V202.695C0 206.855 0 208.935 0.60995 210.792C1.14958 212.435 2.0319 213.945 3.19848 215.222C4.51709 216.664 6.32864 217.684 9.95181 219.724L111.266 276.76C114.056 278.33 115.451 279.115 116.594 278.986C117.59 278.874 118.494 278.345 119.081 277.531C119.754 276.598 119.754 274.996 119.754 271.793Z" fill="white"/>
<path fill-rule="evenodd" clip-rule="evenodd" d="M100.373 13.2916L119.98 1.69452C123.804 -0.567319 128.553 -0.564664 132.375 1.70144L242.021 66.7194C245.727 68.9165 248 72.9114 248 77.2268V206.157C248 210.523 245.675 214.555 241.901 216.735L137.091 278.519C134.722 279.887 131.763 278.174 131.763 275.434V147.316C131.763 146.065 132.418 144.906 133.489 144.262L215.275 95.1288C217.908 93.5467 217.905 89.7207 215.268 88.1437L100.358 19.4162C98.0415 18.0308 98.0496 14.6656 100.373 13.2916ZM167.326 161.535C165.894 162.347 165.01 163.869 165.01 165.518V219.785C165.01 221.734 167.107 222.959 168.799 221.998L214.213 196.214C215.645 195.401 216.53 193.879 216.53 192.23V137.963C216.53 136.014 214.433 134.789 212.741 135.75L167.326 161.535Z" fill="white"/>
<path d="M406 222.4C395.333 222.4 385.4 220.467 376.2 216.6C367.133 212.733 359.2 207.333 352.4 200.4C345.6 193.467 340.267 185.333 336.4 176C332.667 166.667 330.8 156.467 330.8 145.4C330.8 134.333 332.667 124.133 336.4 114.8C340.133 105.333 345.4 97.2 352.2 90.4C359 83.4667 366.933 78.1333 376 74.4C385.2 70.5333 395.2 68.6 406 68.6C416.8 68.6 426.467 70.4 435 74C443.667 77.6 451 82.4 457 88.4C463 94.4 467.267 101.067 469.8 108.4L442.4 121.6C439.867 114.4 435.4 108.467 429 103.8C422.733 99 415.067 96.6 406 96.6C397.2 96.6 389.467 98.6667 382.8 102.8C376.133 106.933 370.933 112.667 367.2 120C363.6 127.2 361.8 135.667 361.8 145.4C361.8 155.133 363.6 163.667 367.2 171C370.933 178.333 376.133 184.067 382.8 188.2C389.467 192.333 397.2 194.4 406 194.4C415.067 194.4 422.733 192.067 429 187.4C435.4 182.6 439.867 176.6 442.4 169.4L469.8 182.6C467.267 189.933 463 196.6 457 202.6C451 208.6 443.667 213.4 435 217C426.467 220.6 416.8 222.4 406 222.4ZM489.692 220V71H520.692V193H583.692V220H489.692ZM599.067 220V71H699.267V98H630.067V131.8H695.267V158.8H630.067V193H699.267V220H599.067ZM705.841 220L756.241 71H797.441L847.841 220H814.041L804.041 189.6H749.441L739.441 220H705.841ZM758.041 162.6H795.441L772.641 92.2H781.041L758.041 162.6ZM863.325 220V71H920.325C930.592 71 939.658 72.8 947.525 76.4C955.525 80 961.792 85.3333 966.325 92.4C970.858 99.4667 973.125 108.2 973.125 118.6C973.125 128.733 970.792 137.4 966.125 144.6C961.458 151.667 955.192 157 947.325 160.6L981.325 220H946.525L909.725 154.2L929.725 166H894.325V220H863.325ZM894.325 139H920.525C924.925 139 928.725 138.133 931.925 136.4C935.125 134.667 937.592 132.267 939.325 129.2C941.192 126.133 942.125 122.6 942.125 118.6C942.125 114.467 941.192 110.867 939.325 107.8C937.592 104.733 935.125 102.333 931.925 100.6C928.725 98.8667 924.925 98 920.525 98H894.325V139ZM996.723 220V71H1027.72V193H1090.72V220H996.723ZM1126.73 220V155L1077.13 71H1112.53L1148.53 134.2H1135.93L1171.73 71H1207.13L1157.73 154.8V220H1126.73ZM1222.5 220V71H1271.1C1287.24 71 1301.24 74.2 1313.1 80.6C1324.97 87 1334.17 95.8 1340.7 107C1347.24 118.2 1350.5 131 1350.5 145.4C1350.5 159.8 1347.24 172.667 1340.7 184C1334.17 195.2 1324.97 204 1313.1 210.4C1301.24 216.8 1287.24 220 1271.1 220H1222.5ZM1253.5 193H1271.9C1281.64 193 1290.04 191.067 1297.1 187.2C1304.17 183.2 1309.64 177.667 1313.5 170.6C1317.5 163.4 1319.5 155 1319.5 145.4C1319.5 135.667 1317.5 127.267 1313.5 120.2C1309.64 113.133 1304.17 107.667 1297.1 103.8C1290.04 99.9333 1281.64 98 1271.9 98H1253.5V193ZM1370.36 220V71H1470.56V98H1401.36V131.8H1466.56V158.8H1401.36V193H1470.56V220H1370.36ZM1528.13 220L1477.13 71H1511.13L1549.53 190.6H1542.73L1581.13 71H1615.13L1564.13 220H1528.13Z" fill="white"/>
</svg>
